# xmcd
#
# Track frame offsets:
#	150
#	17591
#	35411
#	48284
#	62943
#	79554
#	95740
#	113925
#	126668
#	137972
#	153836
#	166282
#
# Disc length: 2494 seconds
#
# Revision: 1
# Processed by: cddbd v1.5.2PL0 Copyright (c) Steve Scherf et al.
# Submitted via: audiograbber 1.83.01
#
DISCID=a009bc0c
DTITLE=Craig Young - It´s Just Me Craig YoungIt´s Just Me
DYEAR=1999
DGENRE=Country
TTITLE0=It´s Just Me
TTITLE1=Any Old Two Step Will Do
TTITLE2=I´m Not Gettin´ Anywhere
TTITLE3=I Can´t Let You Stay
TTITLE4=Finally Over You
TTITLE5=Monday Blues
TTITLE6=If I Didin´t Even Try
TTITLE7=The Pourin´ Rain
TTITLE8=The Last Train
TTITLE9=Love Unchanged
TTITLE10=The Hockey Song
TTITLE11=The Galss
EXTD=
EXTT0=
EXTT1=
EXTT2=
EXTT3=
EXTT4=
EXTT5=
EXTT6=
EXTT7=
EXTT8=
EXTT9=
EXTT10=
EXTT11=
PLAYORDER=
